<svg width="124" height="26" viewBox="0 0 124 26" fill="none" xmlns="http://www.w3.org/2000/svg">
<path d="M8.89062 14.8594H3.07812L3.04688 11.8281H8.03125C8.88542 11.8281 9.59896 11.7083 10.1719 11.4688C10.7448 11.2292 11.1771 10.8802 11.4688 10.4219C11.7708 9.96354 11.9219 9.40625 11.9219 8.75C11.9219 8.02083 11.7812 7.42708 11.5 6.96875C11.2292 6.51042 10.8021 6.17708 10.2188 5.96875C9.63542 5.75 8.89583 5.64062 8 5.64062H4.46875V25H0.171875V2.25H8C9.29167 2.25 10.4427 2.375 11.4531 2.625C12.474 2.86458 13.3385 3.23958 14.0469 3.75C14.7552 4.26042 15.2917 4.90104 15.6562 5.67188C16.0312 6.44271 16.2188 7.35938 16.2188 8.42188C16.2188 9.35938 16 10.224 15.5625 11.0156C15.1354 11.7969 14.474 12.4323 13.5781 12.9219C12.6927 13.4115 11.5677 13.6927 10.2031 13.7656L8.89062 14.8594ZM8.70312 25H1.8125L3.60938 21.625H8.70312C9.55729 21.625 10.2604 21.4844 10.8125 21.2031C11.375 20.9219 11.7917 20.5365 12.0625 20.0469C12.3438 19.5469 12.4844 18.974 12.4844 18.3281C12.4844 17.6198 12.3594 17.0052 12.1094 16.4844C11.8698 15.9635 11.4844 15.5625 10.9531 15.2812C10.4323 15 9.74479 14.8594 8.89062 14.8594H4.42188L4.45312 11.8281H10.1406L11.125 13C12.4375 13.0104 13.5052 13.2708 14.3281 13.7812C15.1615 14.2917 15.776 14.9479 16.1719 15.75C16.5677 16.5521 16.7656 17.4167 16.7656 18.3438C16.7656 19.8021 16.4479 21.026 15.8125 22.0156C15.1875 23.0052 14.2708 23.75 13.0625 24.25C11.8646 24.75 10.4115 25 8.70312 25ZM29.3788 21.4062V13.6094C29.3788 13.0365 29.2798 12.5417 29.0819 12.125C28.884 11.7083 28.5819 11.3854 28.1756 11.1562C27.7694 10.9271 27.2538 10.8125 26.6288 10.8125C26.0767 10.8125 25.5923 10.9062 25.1756 11.0938C24.7694 11.2812 24.4569 11.5469 24.2381 11.8906C24.0194 12.224 23.91 12.6094 23.91 13.0469H19.7694C19.7694 12.349 19.9361 11.6875 20.2694 11.0625C20.6027 10.4271 21.0767 9.86458 21.6913 9.375C22.3163 8.875 23.0611 8.48438 23.9256 8.20312C24.8006 7.92188 25.7798 7.78125 26.8631 7.78125C28.1444 7.78125 29.285 8 30.285 8.4375C31.2954 8.86458 32.0871 9.51042 32.66 10.375C33.2434 11.2396 33.535 12.3281 33.535 13.6406V21.0156C33.535 21.8594 33.5871 22.5833 33.6913 23.1875C33.8059 23.7812 33.9725 24.2969 34.1913 24.7344V25H29.9881C29.7902 24.5729 29.6392 24.0312 29.535 23.375C29.4309 22.7083 29.3788 22.0521 29.3788 21.4062ZM29.9569 14.7031L29.9881 17.1562H27.3788C26.7329 17.1562 26.1652 17.224 25.6756 17.3594C25.1861 17.4844 24.785 17.6719 24.4725 17.9219C24.16 18.1615 23.9256 18.4531 23.7694 18.7969C23.6131 19.1302 23.535 19.5104 23.535 19.9375C23.535 20.3542 23.6288 20.7292 23.8163 21.0625C24.0142 21.3958 24.2954 21.6615 24.66 21.8594C25.035 22.0469 25.4725 22.1406 25.9725 22.1406C26.7017 22.1406 27.3371 21.9948 27.8788 21.7031C28.4204 21.401 28.8423 21.0365 29.1444 20.6094C29.4465 20.1823 29.6079 19.776 29.6288 19.3906L30.8163 21.1719C30.6704 21.599 30.4517 22.0521 30.16 22.5312C29.8684 23.0104 29.4934 23.4583 29.035 23.875C28.5767 24.2917 28.0246 24.6354 27.3788 24.9062C26.7329 25.1771 25.9829 25.3125 25.1288 25.3125C24.035 25.3125 23.0559 25.0938 22.1913 24.6562C21.3267 24.2188 20.6444 23.6198 20.1444 22.8594C19.6444 22.099 19.3944 21.2344 19.3944 20.2656C19.3944 19.3698 19.5611 18.5781 19.8944 17.8906C20.2277 17.2031 20.7225 16.625 21.3788 16.1562C22.035 15.6771 22.8475 15.3177 23.8163 15.0781C24.7954 14.8281 25.9152 14.7031 27.1756 14.7031H29.9569ZM41.2732 0.984375V25H37.1482V0.984375H41.2732ZM51.8669 8.09375L44.5075 16.3594L40.5232 20.4062L39.2107 17.2031L42.2888 13.3281L46.8825 8.09375H51.8669ZM47.6482 25L42.4138 17.125L45.1638 14.4531L52.4294 25H47.6482ZM61.2301 25.3125C59.9488 25.3125 58.7978 25.1042 57.777 24.6875C56.7561 24.2708 55.8863 23.6927 55.1676 22.9531C54.4592 22.2031 53.9124 21.3333 53.527 20.3438C53.152 19.3438 52.9645 18.2708 52.9645 17.125V16.5C52.9645 15.1979 53.152 14.0156 53.527 12.9531C53.902 11.8802 54.4332 10.9583 55.1207 10.1875C55.8082 9.41667 56.6311 8.82292 57.5895 8.40625C58.5478 7.98958 59.6051 7.78125 60.7613 7.78125C61.9592 7.78125 63.0165 7.98438 63.9332 8.39062C64.8499 8.78646 65.6155 9.34896 66.2301 10.0781C66.8447 10.8073 67.3082 11.6823 67.6207 12.7031C67.9332 13.7135 68.0895 14.8333 68.0895 16.0625V17.7969H54.8395V14.9531H64.027V14.6406C64.0061 13.9844 63.8811 13.3854 63.652 12.8438C63.4228 12.2917 63.0686 11.8542 62.5895 11.5312C62.1103 11.1979 61.4905 11.0312 60.7301 11.0312C60.1155 11.0312 59.579 11.1667 59.1207 11.4375C58.6728 11.6979 58.2978 12.0729 57.9957 12.5625C57.704 13.0417 57.4853 13.6146 57.3395 14.2812C57.1936 14.9479 57.1207 15.6875 57.1207 16.5V17.125C57.1207 17.8333 57.2145 18.4896 57.402 19.0938C57.5999 19.6979 57.8863 20.224 58.2613 20.6719C58.6467 21.1094 59.1051 21.4531 59.6363 21.7031C60.178 21.9427 60.7926 22.0625 61.4801 22.0625C62.3447 22.0625 63.1259 21.8958 63.8238 21.5625C64.5322 21.2188 65.1467 20.7135 65.6676 20.0469L67.7457 22.2031C67.3915 22.724 66.9124 23.224 66.3082 23.7031C65.7145 24.1823 64.9957 24.5729 64.152 24.875C63.3082 25.1667 62.3342 25.3125 61.2301 25.3125ZM76.1557 25H71.9995V6.53125C71.9995 5.26042 72.2443 4.19271 72.7338 3.32812C73.2234 2.45312 73.9213 1.79167 74.8276 1.34375C75.7338 0.895833 76.8016 0.671875 78.0307 0.671875C78.437 0.671875 78.8224 0.697917 79.187 0.75C79.562 0.802083 79.9318 0.875 80.2963 0.96875L80.2182 4.10938C80.0203 4.05729 79.8016 4.02083 79.562 4C79.3328 3.97917 79.0776 3.96875 78.7963 3.96875C78.2338 3.96875 77.7547 4.06771 77.3588 4.26562C76.963 4.46354 76.6609 4.75521 76.4526 5.14062C76.2547 5.51562 76.1557 5.97917 76.1557 6.53125V25ZM79.5776 8.09375V11.0625H69.4526V8.09375H79.5776ZM91.3314 21.4062V13.6094C91.3314 13.0365 91.2324 12.5417 91.0345 12.125C90.8366 11.7083 90.5345 11.3854 90.1283 11.1562C89.722 10.9271 89.2064 10.8125 88.5814 10.8125C88.0293 10.8125 87.5449 10.9062 87.1283 11.0938C86.722 11.2812 86.4095 11.5469 86.1908 11.8906C85.972 12.224 85.8626 12.6094 85.8626 13.0469H81.722C81.722 12.349 81.8887 11.6875 82.222 11.0625C82.5553 10.4271 83.0293 9.86458 83.6439 9.375C84.2689 8.875 85.0137 8.48438 85.8783 8.20312C86.7533 7.92188 87.7324 7.78125 88.8158 7.78125C90.097 7.78125 91.2376 8 92.2376 8.4375C93.248 8.86458 94.0397 9.51042 94.6126 10.375C95.196 11.2396 95.4876 12.3281 95.4876 13.6406V21.0156C95.4876 21.8594 95.5397 22.5833 95.6439 23.1875C95.7585 23.7812 95.9251 24.2969 96.1439 24.7344V25H91.9408C91.7428 24.5729 91.5918 24.0312 91.4876 23.375C91.3835 22.7083 91.3314 22.0521 91.3314 21.4062ZM91.9095 14.7031L91.9408 17.1562H89.3314C88.6855 17.1562 88.1178 17.224 87.6283 17.3594C87.1387 17.4844 86.7376 17.6719 86.4251 17.9219C86.1126 18.1615 85.8783 18.4531 85.722 18.7969C85.5658 19.1302 85.4876 19.5104 85.4876 19.9375C85.4876 20.3542 85.5814 20.7292 85.7689 21.0625C85.9668 21.3958 86.248 21.6615 86.6126 21.8594C86.9876 22.0469 87.4251 22.1406 87.9251 22.1406C88.6543 22.1406 89.2897 21.9948 89.8314 21.7031C90.373 21.401 90.7949 21.0365 91.097 20.6094C91.3991 20.1823 91.5605 19.776 91.5814 19.3906L92.7689 21.1719C92.623 21.599 92.4043 22.0521 92.1126 22.5312C91.821 23.0104 91.446 23.4583 90.9876 23.875C90.5293 24.2917 89.9772 24.6354 89.3314 24.9062C88.6855 25.1771 87.9355 25.3125 87.0814 25.3125C85.9876 25.3125 85.0085 25.0938 84.1439 24.6562C83.2793 24.2188 82.597 23.6198 82.097 22.8594C81.597 22.099 81.347 21.2344 81.347 20.2656C81.347 19.3698 81.5137 18.5781 81.847 17.8906C82.1803 17.2031 82.6751 16.625 83.3314 16.1562C83.9876 15.6771 84.8001 15.3177 85.7689 15.0781C86.748 14.8281 87.8678 14.7031 89.1283 14.7031H91.9095ZM108.398 20.375C108.398 20.0208 108.304 19.7031 108.116 19.4219C107.929 19.1406 107.575 18.8854 107.054 18.6562C106.543 18.4167 105.793 18.1927 104.804 17.9844C103.929 17.7969 103.122 17.5625 102.382 17.2812C101.642 17 101.007 16.6615 100.476 16.2656C99.9445 15.8594 99.5279 15.3854 99.2258 14.8438C98.9341 14.2917 98.7883 13.6562 98.7883 12.9375C98.7883 12.2396 98.9393 11.5833 99.2414 10.9688C99.5435 10.3438 99.981 9.79688 100.554 9.32812C101.127 8.84896 101.825 8.47396 102.648 8.20312C103.471 7.92188 104.398 7.78125 105.429 7.78125C106.866 7.78125 108.101 8.01562 109.132 8.48438C110.174 8.95312 110.971 9.59896 111.523 10.4219C112.075 11.2344 112.351 12.151 112.351 13.1719H108.226C108.226 12.724 108.122 12.3177 107.913 11.9531C107.715 11.5885 107.408 11.2969 106.991 11.0781C106.575 10.849 106.049 10.7344 105.413 10.7344C104.84 10.7344 104.356 10.8281 103.96 11.0156C103.575 11.2031 103.283 11.4479 103.085 11.75C102.887 12.0521 102.788 12.3854 102.788 12.75C102.788 13.0208 102.84 13.2656 102.945 13.4844C103.059 13.6927 103.241 13.8854 103.491 14.0625C103.741 14.2396 104.08 14.401 104.507 14.5469C104.945 14.6927 105.481 14.8333 106.116 14.9688C107.377 15.2188 108.476 15.5521 109.413 15.9688C110.361 16.375 111.101 16.9167 111.632 17.5938C112.163 18.2708 112.429 19.1354 112.429 20.1875C112.429 20.9375 112.267 21.625 111.945 22.25C111.622 22.8646 111.153 23.401 110.538 23.8594C109.924 24.3177 109.189 24.6771 108.335 24.9375C107.481 25.1875 106.517 25.3125 105.445 25.3125C103.892 25.3125 102.58 25.0365 101.507 24.4844C100.434 23.9219 99.6216 23.2135 99.0695 22.3594C98.5174 21.4948 98.2414 20.599 98.2414 19.6719H102.195C102.226 20.3281 102.403 20.8542 102.726 21.25C103.049 21.6458 103.455 21.9323 103.945 22.1094C104.445 22.276 104.971 22.3594 105.523 22.3594C106.148 22.3594 106.674 22.276 107.101 22.1094C107.528 21.9323 107.851 21.6979 108.07 21.4062C108.288 21.1042 108.398 20.7604 108.398 20.375ZM123.464 8.09375V11.0625H113.776V8.09375H123.464ZM116.37 3.9375H120.511V20.125C120.511 20.625 120.579 21.0104 120.714 21.2812C120.849 21.5521 121.052 21.7344 121.323 21.8281C121.594 21.9219 121.917 21.9688 122.292 21.9688C122.563 21.9688 122.813 21.9531 123.042 21.9219C123.271 21.8906 123.464 21.8594 123.62 21.8281L123.636 24.9219C123.292 25.0365 122.901 25.1302 122.464 25.2031C122.037 25.276 121.552 25.3125 121.011 25.3125C120.084 25.3125 119.271 25.1562 118.573 24.8438C117.875 24.5208 117.334 24.0052 116.948 23.2969C116.563 22.5781 116.37 21.6302 116.37 20.4531V3.9375Z" fill="#9600FF"/>
</svg>
