<svg width="50" height="50" viewBox="0 0 50 50" fill="none" xmlns="http://www.w3.org/2000/svg">
<circle cx="25" cy="25" r="25" fill="#9600FF"/>
<path fill-rule="evenodd" clip-rule="evenodd" d="M8.65253 14C8.29215 14 8.00186 14.2921 8.00416 14.6525C8.00645 15.0129 8.30046 15.305 8.66084 15.305H11.3313C11.5034 15.305 11.6125 15.35 11.6953 15.4091C11.7766 15.467 11.8592 15.5584 11.9409 15.6961L16.135 30.0824C16.4724 31.4285 17.7438 32.2647 19.0863 32.2647H34.2591C34.6195 32.2647 34.9098 31.9726 34.9075 31.6122C34.9052 31.2518 34.6112 30.9597 34.2508 30.9597H19.078C18.2406 30.9597 17.5655 30.4452 17.3989 29.7648C17.3966 29.7556 17.3941 29.7464 17.3915 29.7373L17.0761 28.6554H34.5799C35.2364 28.6554 35.7592 28.2916 35.8866 27.6853L38.0053 17.3734C38.0946 16.9386 37.7604 16.5293 37.3159 16.5293H13.5409L13.1723 15.265C13.1592 15.2201 13.1413 15.1766 13.1189 15.1354C12.9655 14.8528 12.7531 14.5654 12.4487 14.3482C12.1352 14.1246 11.7577 14 11.323 14H8.65253ZM18.903 35.6093C18.898 34.8251 19.5606 34.1599 20.4201 34.1599C21.2797 34.1599 21.9507 34.8251 21.9557 35.6093C21.9607 36.3936 21.2981 37.0587 20.4386 37.0587C19.579 37.0587 18.908 36.3936 18.903 35.6093ZM20.4146 33.2899C19.1076 33.2899 18.0247 34.3121 18.0329 35.6093C18.0412 36.9065 19.1372 37.9287 20.4441 37.9287C21.751 37.9287 22.834 36.9065 22.8258 35.6093C22.8175 34.3121 21.7215 33.2899 20.4146 33.2899ZM32.1846 34.2299C31.325 34.2299 30.6624 34.895 30.6674 35.6793C30.6724 36.4635 31.3435 37.1287 32.203 37.1287C33.0626 37.1287 33.7252 36.4635 33.7202 35.6793C33.7152 34.895 33.0441 34.2299 32.1846 34.2299ZM29.7974 35.6793C29.7891 34.382 30.8721 33.3598 32.179 33.3598C33.486 33.3598 34.5819 34.382 34.5902 35.6793C34.5985 36.9765 33.5155 37.9987 32.2086 37.9987C30.9016 37.9987 29.8057 36.9765 29.7974 35.6793Z" fill="white"/>
</svg>
