<svg width="45" height="45" viewBox="0 0 45 45" fill="none" xmlns="http://www.w3.org/2000/svg">
<circle cx="22.5" cy="22.5" r="22.5" fill="#9600FF"/>
<path d="M22.8906 22.8594H17.0781L17.0469 19.8281H22.0312C22.8854 19.8281 23.599 19.7083 24.1719 19.4688C24.7448 19.2292 25.1771 18.8802 25.4688 18.4219C25.7708 17.9635 25.9219 17.4062 25.9219 16.75C25.9219 16.0208 25.7812 15.4271 25.5 14.9688C25.2292 14.5104 24.8021 14.1771 24.2188 13.9688C23.6354 13.75 22.8958 13.6406 22 13.6406H18.4688V33H14.1719V10.25H22C23.2917 10.25 24.4427 10.375 25.4531 10.625C26.474 10.8646 27.3385 11.2396 28.0469 11.75C28.7552 12.2604 29.2917 12.901 29.6562 13.6719C30.0312 14.4427 30.2188 15.3594 30.2188 16.4219C30.2188 17.3594 30 18.224 29.5625 19.0156C29.1354 19.7969 28.474 20.4323 27.5781 20.9219C26.6927 21.4115 25.5677 21.6927 24.2031 21.7656L22.8906 22.8594ZM22.7031 33H15.8125L17.6094 29.625H22.7031C23.5573 29.625 24.2604 29.4844 24.8125 29.2031C25.375 28.9219 25.7917 28.5365 26.0625 28.0469C26.3438 27.5469 26.4844 26.974 26.4844 26.3281C26.4844 25.6198 26.3594 25.0052 26.1094 24.4844C25.8698 23.9635 25.4844 23.5625 24.9531 23.2812C24.4323 23 23.7448 22.8594 22.8906 22.8594H18.4219L18.4531 19.8281H24.1406L25.125 21C26.4375 21.0104 27.5052 21.2708 28.3281 21.7812C29.1615 22.2917 29.776 22.9479 30.1719 23.75C30.5677 24.5521 30.7656 25.4167 30.7656 26.3438C30.7656 27.8021 30.4479 29.026 29.8125 30.0156C29.1875 31.0052 28.2708 31.75 27.0625 32.25C25.8646 32.75 24.4115 33 22.7031 33Z" fill="white"/>
</svg>
